Coordinates
version=1
nRows=9
nColumns=42
inDegrees=yes

Units are S.I. units (second, meters, Newtons, ...)
If the header above contains a line with 'inDegrees', this indicates whether rotational values are in degrees (yes) or radians (no).

endheader
time	pelvis_tilt	pelvis_list	pelvis_rotation	pelvis_tx	pelvis_ty	pelvis_tz	hip_flexion_r	hip_adduction_r	hip_rotation_r	knee_angle_r	knee_adduction_r	knee_angle_r_beta	ankle_angle_r	subtalar_angle_r	mtp_angle_r	hip_flexion_l	hip_adduction_l	hip_rotation_l	knee_angle_l	knee_adduction_l	knee_angle_l_beta	ankle_angle_l	subtalar_angle_l	mtp_angle_l	lumbar_extension	lumbar_bending	lumbar_rotation	arm_flex_r	arm_add_r	arm_rot_r	elbow_flex_r	pro_sup_r	wrist_flex_r	wrist_dev_r	arm_flex_l	arm_add_l	arm_rot_l	elbow_flex_l	pro_sup_l	wrist_flex_l	wrist_dev_l
      9.54000000	      4.49829886	     -1.53914614	    -14.76447084	      0.52100193	      0.93802132	      0.20364466	     -0.37034649	     -9.49945583	    -22.20668442	     35.66020283	     -0.21562439	      0.62238795	     16.43628140	      4.93211467	     -7.50000463	     13.38706070	     -3.13443762	    -26.79528660	     32.65300367	     -3.54768107	      0.56990242	     11.39644579	     -2.72169306	     -7.50000463	    -18.30157133	      0.29691292	     -1.11750525	      9.13366978	    -11.59573445	     13.33828198	     46.85810367	     90.00000001	      0.00000000	      0.00000000	    -14.02291042	    -14.61513575	     -1.66775759	     55.07337402	     90.00000001	      0.00000000	      0.00000000
      9.55000000	      4.45219256	     -1.48544522	    -14.80493369	      0.52281399	      0.93825851	      0.20258495	      0.08092785	     -9.61067168	    -21.08443145	     36.49317675	      0.09972415	      0.63692609	     15.26272917	      2.01497707	     -7.50000438	     13.20347159	     -2.98882551	    -27.05193343	     32.40093557	     -3.56631318	      0.56550301	     11.57694734	     -2.12756904	     -7.50000438	    -18.19545962	      0.18331209	     -1.08392351	      8.88657737	    -11.81127383	     13.73258079	     47.32566364	     90.00000001	      0.00000000	      0.00000000	    -13.94947123	    -14.50402566	     -2.17122365	     54.91463536	     90.00000001	      0.00000000	      0.00000000
      9.56000000	      4.54329886	     -1.48695541	    -14.78378167	      0.52476909	      0.93861365	      0.20160733	      0.35164095	     -9.74327416	    -20.84460988	     37.29660712	     -0.07850688	      0.65094859	     14.92252239	      1.86163289	     -7.50000434	     12.84463724	     -2.88878347	    -27.09050767	     32.18191852	     -3.41707545	      0.56168044	     11.64506837	     -2.04152239	     -7.50000434	    -18.22674361	      0.09859668	     -1.15231472	      8.81227510	    -11.80239041	     13.78245468	     47.36036949	     90.00000001	      0.00000000	      0.00000000	    -14.00330729	    -14.55889916	     -2.23159100	     54.85666073	     90.00000001	      0.00000000	      0.00000000
      9.57000000	      4.60787556	     -1.47477399	    -14.75591113	      0.52671981	      0.93890953	      0.20058130	      0.67654564	     -9.90175929	    -20.51674071	     38.14686464	     -0.19927229	      0.66578839	     14.47887168	      1.53982844	     -7.50000430	     12.53638542	     -2.74808080	    -27.12678152	     31.95838056	     -3.34091922	      0.55777896	     11.71390354	     -1.91236319	     -7.50000430	    -18.22225613	      0.02307062	     -1.20010333	      8.66545649	    -11.81617343	     13.85399774	     47.45215455	     90.00000001	      0.00000000	      0.00000000	    -14.05339193	    -14.61549307	     -2.33380376	     54.79458886	     90.00000001	      0.00000000	      0.00000000
      9.58000000	      4.63415109	     -1.41248533	    -14.72190225	      0.52864651	      0.93913935	      0.19954502	      1.07515302	    -10.11611686	    -20.01403199	     39.05059557	     -0.19728698	      0.68156147	     13.83730562	      0.85636730	     -7.50000424	     12.28807490	     -2.55394946	    -27.19639862	     31.71330411	     -3.30184869	      0.55350157	     11.81469709	     -1.70749304	     -7.50000424	    -18.16028342	     -0.10487832	     -1.22335582	      8.45584841	    -11.88832923	     13.97302676	     47.66482066	     90.00000001	      0.00000000	      0.00000000	    -14.08961562	    -14.62101140	     -2.50362180	     54.71729505	     90.00000001	      0.00000000	      0.00000000
      9.59000000	      4.64355603	     -1.50369323	    -14.70190816	      0.53043621	      0.93942126	      0.19857063	      1.41704460	    -10.02507263	    -18.77754678	     39.81804189	      0.10865449	      0.69495593	     12.77576708	     -1.49611343	     -7.50000402	     12.07172730	     -2.60756539	    -27.39355796	     31.61544215	     -3.26218054	      0.55179356	     11.94653980	     -1.25570490	     -7.50000402	    -18.15441360	     -0.05236550	     -1.20916173	      8.21417417	    -12.14814179	     14.36569473	     48.28897538	     90.00000001	      0.00000000	      0.00000000	    -14.06425033	    -14.46511123	     -2.98413290	     54.51207934	     90.00000001	      0.00000000	      0.00000000
      9.60000000	      4.74694868	     -1.53976691	    -14.64503758	      0.53239970	      0.93973554	      0.19759417	      1.68676054	    -10.13231846	    -18.39786049	     40.65440964	      0.01155192	      0.70955330	     12.34127296	     -1.57838831	     -7.50000398	     11.72150906	     -2.53983099	    -27.40393136	     31.44283504	     -3.13455175	      0.54878100	     12.03872166	     -1.18554826	     -7.50000398	    -18.19733506	     -0.07653807	     -1.27455575	      8.11065179	    -12.16638795	     14.40526007	     48.31068580	     90.00000001	      0.00000000	      0.00000000	    -14.13353616	    -14.49314613	     -3.04309052	     54.45323356	     90.00000001	      0.00000000	      0.00000000
      9.61000000	      4.83711528	     -1.58915593	    -14.56649186	      0.53431328	      0.94000697	      0.19663926	      1.97400758	    -10.20746648	    -17.96367850	     41.49453837	     -0.05308365	      0.72421632	     11.86635824	     -1.73984078	     -7.50000395	     11.40788167	     -2.48935278	    -27.40405399	     31.29780252	     -3.03211207	      0.54624970	     12.12383549	     -1.10476008	     -7.50000395	    -18.24258085	     -0.09114115	     -1.33545268	      7.99412284	    -12.20463078	     14.43179501	     48.38368703	     90.00000001	      0.00000000	      0.00000000	    -14.20550209	    -14.49849665	     -3.11271845	     54.38884097	     90.00000001	      0.00000000	      0.00000000
      9.62000000	      4.86473720	     -1.55798621	    -14.52009815	      0.53628552	      0.94018163	      0.19562292	      2.36508245	    -10.39882328	    -17.30896642	     42.39335019	      0.07258332	      0.73990354	     11.06944629	     -2.34050276	     -7.50000390	     11.18736132	     -2.30411356	    -27.39675334	     31.11155990	     -3.02779413	      0.54299916	     12.28518175	     -0.96606105	     -7.50000390	    -18.17172400	     -0.15269040	     -1.33162733	      7.73389536	    -12.28026000	     14.49590381	     48.58197614	     90.00000001	      0.00000000	      0.00000000	    -14.28183044	    -14.45754916	     -3.27660815	     54.29573501	     90.00000001	      0.00000000	      0.00000000
